<svg width="86" height="82" viewBox="0 0 86 82" fill="none" xmlns="http://www.w3.org/2000/svg">
<path fill-rule="evenodd" clip-rule="evenodd" d="M2.13998 27.809L42.782 0L83.426 27.809L42.782 4.278L2.13998 27.809ZM2.13998 47.209L42.784 81.435L83.428 45.07L42.782 77.157L2.13998 47.209Z" fill="#82BF2A"/>
<path d="M0 31.139H10.009V33.939H3.639V35.86H9.422V38.655H3.634V40.599H10.184V43.399H0V31.139ZM11.931 31.139H21.431V33.939H15.566V36.377H21.017V39.177H15.566V43.387H11.926L11.931 31.139ZM26.784 39.977C26.9727 40.1813 27.2027 40.343 27.4587 40.4515C27.7148 40.5599 27.991 40.6126 28.269 40.606C28.5392 40.6143 28.8079 40.563 29.056 40.4559C29.3042 40.3488 29.5258 40.1883 29.705 39.986C30.0961 39.5209 30.2962 38.9248 30.265 38.318V31.139H33.905V38.318C33.9275 39.296 33.6893 40.2624 33.215 41.118C32.7542 41.9159 32.0682 42.5602 31.243 42.97C30.3201 43.4231 29.3019 43.6478 28.274 43.625C27.2363 43.647 26.2081 43.4225 25.274 42.97C24.4415 42.5602 23.7465 41.9166 23.274 41.118C22.7874 40.2664 22.5417 39.2985 22.563 38.318V31.139H26.203V38.318C26.1712 38.9259 26.3799 39.5218 26.784 39.977ZM44.061 31.137H47.381V43.383H44.284L39.103 36.577V43.389H35.766V31.139H38.875L44.063 37.963L44.061 31.137ZM58.254 31.895C59.2174 32.3719 60.0213 33.1185 60.568 34.044C61.1095 35.0279 61.3919 36.1333 61.3888 37.2563C61.3856 38.3794 61.097 39.4832 60.55 40.464C59.9899 41.3967 59.1706 42.1465 58.192 42.622C57.0971 43.146 55.8945 43.4057 54.681 43.38H49.438V31.136H54.801C55.9953 31.1122 57.1781 31.3738 58.251 31.899L58.254 31.895ZM56.918 39.643C57.4546 38.9778 57.7282 38.1387 57.687 37.285C57.7264 36.4174 57.4331 35.5676 56.867 34.909C56.5999 34.6108 56.2707 34.3748 55.9025 34.2176C55.5343 34.0603 55.1361 33.9857 54.736 33.999H53.072V40.532H54.905C55.285 40.5448 55.663 40.4717 56.0109 40.3182C56.3587 40.1646 56.6674 39.9345 56.914 39.645L56.918 39.643ZM69.933 43.381L68.309 40.081H66.384V43.381H62.744V31.138H68.457C69.8238 31.0521 71.1766 31.4547 72.274 32.274C72.73 32.6711 73.0891 33.1673 73.3238 33.7245C73.5585 34.2818 73.6625 34.8853 73.628 35.489C73.6486 36.2986 73.4657 37.1004 73.096 37.821C72.744 38.4761 72.214 39.0183 71.567 39.385L74.048 43.385H69.931L69.933 43.381ZM66.387 37.281H68.466C68.6955 37.2958 68.9256 37.2648 69.1429 37.1897C69.3603 37.1147 69.5605 36.9972 69.732 36.844C69.8881 36.6759 70.0081 36.4777 70.0848 36.2616C70.1615 36.0454 70.1932 35.8159 70.178 35.587C70.1929 35.3621 70.1609 35.1366 70.0841 34.9247C70.0074 34.7128 69.8875 34.5192 69.732 34.356C69.383 34.052 68.9279 33.8981 68.466 33.928H66.384L66.387 37.281ZM82.074 34.096C81.4589 33.8617 80.8105 33.7267 80.153 33.696C79.8925 33.6819 79.6338 33.746 79.41 33.88C79.3228 33.9378 79.2521 34.0172 79.2046 34.1104C79.1571 34.2036 79.1345 34.3075 79.139 34.412C79.1423 34.576 79.1938 34.7353 79.2872 34.8702C79.3806 35.005 79.5117 35.1093 79.664 35.17C80.1973 35.417 80.7528 35.6129 81.323 35.755C82.0499 35.9523 82.762 36.2006 83.454 36.498C84.0246 36.757 84.5249 37.149 84.913 37.641C85.349 38.2237 85.5682 38.9401 85.533 39.667C85.5574 40.4413 85.3207 41.2014 84.861 41.825C84.3917 42.4284 83.7605 42.8858 83.041 43.144C82.2216 43.4452 81.3539 43.5933 80.481 43.581C79.408 43.5771 78.3429 43.3973 77.328 43.049C76.3391 42.7275 75.4148 42.2335 74.598 41.59L75.963 38.83C76.6389 39.4011 77.4032 39.8584 78.226 40.184C78.9503 40.5131 79.7311 40.7002 80.526 40.735C80.8508 40.7539 81.1737 40.6748 81.453 40.508C81.5594 40.4382 81.6459 40.3419 81.7041 40.2287C81.7623 40.1155 81.7902 39.9892 81.785 39.862C81.7829 39.6931 81.7303 39.5287 81.6338 39.39C81.5374 39.2513 81.4016 39.1448 81.244 39.084C80.7044 38.8418 80.1429 38.6519 79.567 38.517C78.8465 38.3386 78.14 38.108 77.453 37.827C76.8858 37.5822 76.3878 37.2013 76.003 36.718C75.5764 36.1518 75.3617 35.4541 75.396 34.746C75.3799 34.0066 75.6003 33.2814 76.025 32.676C76.4744 32.0644 77.0897 31.5945 77.798 31.322C78.6468 30.9917 79.5523 30.8313 80.463 30.85C81.3909 30.8513 82.314 30.9836 83.205 31.243C84.0427 31.4737 84.8429 31.8236 85.581 32.282L84.236 35.082C83.5514 34.6859 82.8283 34.3602 82.078 34.11L82.074 34.096Z" fill="white"/>
</svg>
