<svg width="45" height="51" viewBox="0 0 45 51" fill="none" xmlns="http://www.w3.org/2000/svg">
<path d="M21.03 50.048C14.1873 42.228 7.34733 34.4047 0.51 26.578C0.316261 26.3156 0.145623 26.0369 0 25.745L0 25.151C2.01733 21.0963 4.035 17.042 6.053 12.988C6.18463 12.701 6.40017 12.4608 6.67118 12.2988C6.94219 12.1369 7.25594 12.0609 7.571 12.081C17.351 12.081 27.131 12.081 36.911 12.081C37.2505 12.0611 37.588 12.1464 37.8772 12.3254C38.1664 12.5043 38.3933 12.7682 38.527 13.081C40.437 16.9143 42.3537 20.7447 44.277 24.572C44.4681 24.8923 44.5465 25.2674 44.4997 25.6374C44.453 26.0075 44.2837 26.3513 44.019 26.614C37.1743 34.4267 30.3317 42.2443 23.491 50.067C23.3463 50.2547 23.1625 50.4088 22.9524 50.5184C22.7422 50.6281 22.5108 50.6907 22.274 50.702C22.0317 50.6894 21.795 50.6244 21.5802 50.5115C21.3655 50.3986 21.1777 50.2405 21.03 50.048ZM22.215 44.834L22.328 44.826L29.028 26.945H15.51L22.215 44.834ZM17.839 41.888L17.922 41.841L12.341 26.957H4.779L17.839 41.888ZM32.066 27.3C31.0767 29.954 30.084 32.6063 29.088 35.257C28.268 37.4437 27.4477 39.63 26.627 41.816L26.709 41.88L39.742 26.98C39.6659 26.9613 39.5888 26.9473 39.511 26.938H37.691C35.973 26.938 34.254 26.938 32.536 26.927H32.53C32.228 26.924 32.151 27.075 32.066 27.3ZM16.344 23.947H28.2C26.2 21.278 24.258 18.689 22.273 16.047L16.344 23.947ZM33.593 23.947H40.646L37.114 16.889L33.593 23.947ZM3.9 23.936H10.941C9.766 21.585 8.615 19.283 7.418 16.889L3.9 23.936ZM13.612 22.636L19.267 15.088H9.846L13.612 22.636ZM30.922 22.636L34.7 15.065H25.249L30.922 22.636ZM15.238 8.425C14.2593 7.46967 13.2927 6.503 12.338 5.525C12.1086 5.31778 11.9536 5.041 11.8967 4.73715C11.8398 4.43331 11.8841 4.11919 12.023 3.843C12.1628 3.55789 12.3848 3.32116 12.6603 3.16326C12.9358 3.00537 13.2523 2.93353 13.569 2.957C13.8843 3.08543 14.1804 3.2567 14.449 3.466C15.431 4.394 16.379 5.358 17.323 6.326C17.475 6.46056 17.5975 6.6252 17.6827 6.8095C17.7679 6.99381 17.8139 7.19379 17.8178 7.39679C17.8218 7.59979 17.7836 7.8014 17.7056 7.98888C17.6277 8.17636 17.5117 8.34563 17.365 8.486C17.0974 8.75663 16.7336 8.91048 16.353 8.914C15.9314 8.9043 15.5307 8.72857 15.238 8.425ZM27.164 8.472C27.0192 8.32968 26.9054 8.15897 26.8298 7.97059C26.7541 7.78221 26.7182 7.58022 26.7243 7.3773C26.7304 7.17438 26.7784 6.97491 26.8652 6.79142C26.9521 6.60792 27.0759 6.44436 27.229 6.311C28.175 5.345 29.132 4.389 30.1 3.443C30.3067 3.21393 30.5815 3.05726 30.884 2.99605C31.1864 2.93485 31.5005 2.97234 31.78 3.103C32.0524 3.23833 32.2856 3.44101 32.4577 3.6918C32.6297 3.94259 32.7348 4.23318 32.763 4.536C32.5999 4.90078 32.3956 5.24569 32.154 5.564C31.237 6.535 30.284 7.471 29.33 8.404C29.0307 8.71704 28.6199 8.89925 28.187 8.911C27.9959 8.91007 27.8069 8.87082 27.6311 8.79559C27.4554 8.72036 27.2966 8.61067 27.164 8.473V8.472ZM20.786 5.747C20.786 4.495 20.823 3.242 20.773 1.992C20.7106 1.58497 20.7847 1.16873 20.9839 0.808322C21.1831 0.447919 21.4961 0.163668 21.874 0L22.666 0C23.0437 0.163834 23.3565 0.448154 23.5555 0.808543C23.7545 1.16893 23.8285 1.58509 23.766 1.992C23.715 3.242 23.757 4.492 23.752 5.747C23.7782 5.95732 23.7595 6.17082 23.6969 6.37333C23.6343 6.57583 23.5294 6.76273 23.3892 6.9216C23.2489 7.08048 23.0764 7.20771 22.8832 7.29486C22.69 7.38201 22.4804 7.42707 22.2685 7.42707C22.0565 7.42707 21.847 7.38201 21.6538 7.29486C21.4606 7.20771 21.2881 7.08048 21.1479 6.9216C21.0076 6.76273 20.9027 6.57583 20.8401 6.37333C20.7775 6.17082 20.7588 5.95732 20.785 5.747H20.786Z" fill="#82BF2A"/>
</svg>
